<svg width="431" height="64" viewBox="0 0 431 64" fill="none" xmlns="http://www.w3.org/2000/svg">
<rect x="0.500122" y="0.5" width="430" height="63" rx="31.5" fill="black"/>
<rect x="0.500122" y="0.5" width="430" height="63" rx="31.5" stroke="white"/>
<g clip-path="url(#clip0_11866_12577)">
<path d="M73.0001 31C73.0001 21.0589 64.9412 13 55.0001 13C45.059 13 37.0001 21.0589 37.0001 31C37.0001 40.9411 45.059 49 55.0001 49C64.9412 49 73.0001 40.9411 73.0001 31Z" fill="white"/>
<path fill-rule="evenodd" clip-rule="evenodd" d="M57.0834 29.7498C57.0834 28.5987 56.1507 27.666 55.0005 27.666C53.8494 27.666 52.9167 28.5987 52.9167 29.7498C52.9167 30.9 53.8494 31.8327 55.0005 31.8327C56.1507 31.8327 57.0834 30.9 57.0834 29.7498Z" stroke="black" stroke-width="1.5" stroke-linecap="round" stroke-linejoin="round"/>
<path fill-rule="evenodd" clip-rule="evenodd" d="M54.9996 38.5C54.0009 38.5 48.75 34.2486 48.75 29.8027C48.75 26.3222 51.5476 23.5 54.9996 23.5C58.4516 23.5 61.25 26.3222 61.25 29.8027C61.25 34.2486 55.9983 38.5 54.9996 38.5Z" stroke="black" stroke-width="1.5" stroke-linecap="round" stroke-linejoin="round"/>
</g>
<rect x="101" y="14" width="36" height="36" rx="18" fill="white"/>
<path d="M119.586 32.3333C119.171 31.75 118.624 31.345 117.943 31.1184C117.263 30.8919 116.56 30.7783 115.833 30.7778C115.107 30.7778 114.404 30.8913 113.723 31.1184C113.042 31.3456 112.495 31.7505 112.081 32.3333H119.586ZM115.833 29.2222C116.43 29.2222 117.036 29.2969 117.652 29.4462C118.268 29.5956 118.838 29.8255 119.363 30.1361C119.888 30.4472 120.338 30.8361 120.714 31.3028C121.09 31.7694 121.343 32.3203 121.472 32.9556C121.524 33.2019 121.472 33.4189 121.317 33.6066C121.161 33.7942 120.96 33.8883 120.714 33.8889H110.953C110.706 33.8889 110.506 33.7948 110.35 33.6066C110.194 33.4183 110.143 33.2013 110.194 32.9556C110.324 32.3203 110.58 31.7694 110.963 31.3028C111.346 30.8361 111.799 30.4472 112.324 30.1361C112.849 29.825 113.416 29.5948 114.025 29.4454C114.634 29.2961 115.237 29.2217 115.833 29.2222ZM110.778 37C110.557 37 110.373 36.9253 110.224 36.776C110.075 36.6267 110.001 36.4421 110 36.2222C110 36.0019 110.075 35.8172 110.224 35.6684C110.373 35.5197 110.558 35.445 110.778 35.4444H120.889C121.109 35.4444 121.294 35.5191 121.443 35.6684C121.593 35.8178 121.667 36.0023 121.667 36.2222C121.667 36.4426 121.592 36.6274 121.443 36.7768C121.293 36.9261 121.109 37.0005 120.889 37H110.778ZM124.544 40.1111H123.222V38.5556H124.311L125.4 27.6667H117.972L117.894 26.9861C117.869 26.7528 117.93 26.5485 118.08 26.3732C118.229 26.198 118.42 26.1106 118.653 26.1111H121.667V23.7778C121.667 23.5574 121.741 23.3728 121.891 23.224C122.04 23.0752 122.225 23.0005 122.444 23C122.665 23 122.85 23.0747 122.999 23.224C123.148 23.3733 123.223 23.5579 123.222 23.7778V26.1111H126.256C126.489 26.1111 126.683 26.1953 126.839 26.3639C126.994 26.5324 127.059 26.7333 127.033 26.9667L125.828 38.9833C125.789 39.3074 125.646 39.5765 125.4 39.7907C125.154 40.0048 124.869 40.1117 124.544 40.1111ZM110.778 40.1111C110.557 40.1111 110.373 40.0364 110.224 39.8871C110.075 39.7378 110.001 39.5532 110 39.3333C110 39.113 110.075 38.9283 110.224 38.7796C110.373 38.6308 110.558 38.5561 110.778 38.5556H120.889C121.109 38.5556 121.294 38.6302 121.443 38.7796C121.593 38.9289 121.667 39.1135 121.667 39.3333C121.667 39.5537 121.592 39.7386 121.443 39.8879C121.293 40.0372 121.109 40.1117 120.889 40.1111H110.778Z" fill="black"/>
<rect x="165" y="13" width="36" height="36" rx="18" fill="white"/>
<path d="M179.889 39.1818H183.444C183.444 40.1818 182.644 41 181.667 41C180.689 41 179.889 40.1818 179.889 39.1818ZM178.111 38.2727H185.222V36.4545H178.111V38.2727ZM188.333 29.6364C188.333 33.1091 185.969 34.9636 184.982 35.5455H178.351C177.364 34.9636 175 33.1091 175 29.6364C175 25.8727 177.987 22.8182 181.667 22.8182C185.347 22.8182 188.333 25.8727 188.333 29.6364ZM186.556 29.6364C186.556 26.8818 184.36 24.6364 181.667 24.6364C178.973 24.6364 176.778 26.8818 176.778 29.6364C176.778 31.8818 178.102 33.1727 178.867 33.7273H184.467C185.231 33.1727 186.556 31.8818 186.556 29.6364ZM192.662 27.7L191.444 28.2727L192.662 28.8455L193.222 30.0909L193.782 28.8455L195 28.2727L193.782 27.7L193.222 26.4545L192.662 27.7ZM190.556 26.4545L191.391 24.5818L193.222 23.7273L191.391 22.8727L190.556 21L189.72 22.8727L187.889 23.7273L189.72 24.5818L190.556 26.4545Z" fill="black"/>
<rect x="229" y="14" width="36" height="36" rx="18" fill="white"/>
<path d="M239 23.6667C239 23.4899 239.07 23.3203 239.195 23.1953C239.32 23.0702 239.49 23 239.667 23C239.843 23 240.013 23.0702 240.138 23.1953C240.263 23.3203 240.333 23.4899 240.333 23.6667V40.1111C240.333 40.2879 240.263 40.4575 240.138 40.5825C240.013 40.7075 239.843 40.7778 239.667 40.7778C239.49 40.7778 239.32 40.7075 239.195 40.5825C239.07 40.4575 239 40.2879 239 40.1111V23.6667ZM243.667 24.7778C243.136 24.7778 242.628 24.9885 242.252 25.3636C241.877 25.7386 241.667 26.2473 241.667 26.7778V29C241.667 29.5304 241.877 30.0391 242.252 30.4142C242.628 30.7893 243.136 31 243.667 31H253C253.53 31 254.039 30.7893 254.414 30.4142C254.789 30.0391 255 29.5304 255 29V26.7778C255 26.2473 254.789 25.7386 254.414 25.3636C254.039 24.9885 253.53 24.7778 253 24.7778H243.667ZM243 26.7778C243 26.601 243.07 26.4314 243.195 26.3064C243.32 26.1813 243.49 26.1111 243.667 26.1111H253C253.177 26.1111 253.346 26.1813 253.471 26.3064C253.596 26.4314 253.667 26.601 253.667 26.7778V29C253.667 29.1768 253.596 29.3464 253.471 29.4714C253.346 29.5964 253.177 29.6667 253 29.6667H243.667C243.49 29.6667 243.32 29.5964 243.195 29.4714C243.07 29.3464 243 29.1768 243 29V26.7778ZM243.667 32.7778C243.136 32.7778 242.628 32.9885 242.252 33.3636C241.877 33.7386 241.667 34.2473 241.667 34.7778V37C241.667 37.2626 241.718 37.5227 241.819 37.7654C241.919 38.008 242.067 38.2285 242.252 38.4142C242.438 38.5999 242.659 38.7473 242.901 38.8478C243.144 38.9483 243.404 39 243.667 39H249.889C250.152 39 250.412 38.9483 250.654 38.8478C250.897 38.7473 251.117 38.5999 251.303 38.4142C251.489 38.2285 251.636 38.008 251.737 37.7654C251.837 37.5227 251.889 37.2626 251.889 37V34.7778C251.889 34.2473 251.678 33.7386 251.303 33.3636C250.928 32.9885 250.419 32.7778 249.889 32.7778H243.667ZM243 34.7778C243 34.601 243.07 34.4314 243.195 34.3064C243.32 34.1813 243.49 34.1111 243.667 34.1111H249.889C250.066 34.1111 250.235 34.1813 250.36 34.3064C250.485 34.4314 250.556 34.601 250.556 34.7778V37C250.556 37.1768 250.485 37.3464 250.36 37.4714C250.235 37.5964 250.066 37.6667 249.889 37.6667H243.667C243.49 37.6667 243.32 37.5964 243.195 37.4714C243.07 37.3464 243 37.1768 243 37V34.7778Z" fill="black"/>
<rect x="293" y="14" width="36" height="36" rx="18" fill="white"/>
<path d="M306.8 32.4C308.128 32.4 309.2 31.328 309.2 30C309.2 28.672 308.128 27.6 306.8 27.6C305.472 27.6 304.4 28.672 304.4 30C304.4 31.328 305.472 32.4 306.8 32.4ZM316.4 27.6H311.6C310.72 27.6 310 28.32 310 29.2V33.2H303.6V26.8C303.6 26.36 303.24 26 302.8 26C302.36 26 302 26.36 302 26.8V37.2C302 37.64 302.36 38 302.8 38C303.24 38 303.6 37.64 303.6 37.2V35.6H318V37.2C318 37.64 318.36 38 318.8 38C319.24 38 319.6 37.64 319.6 37.2V30.8C319.6 29.032 318.168 27.6 316.4 27.6Z" fill="black"/>
<rect x="357" y="14" width="36" height="36" rx="18" fill="white"/>
<path d="M367 31V35C367 38.3 367 39.95 368.025 40.975C369.05 42 370.7 42 374 42H376C379.3 42 380.95 42 381.975 40.975C383 39.95 383 38.3 383 35V31M375 25.857C375 24.8341 374.594 23.853 373.87 23.1297C373.147 22.4064 372.166 22 371.143 22H370.786C369.8 22 369 22.799 369 23.786C369 24.6384 369.339 25.4559 369.941 26.0586C370.544 26.6614 371.362 27 372.214 27H375M375 25.857V27M375 25.857C375 24.8341 375.406 23.853 376.13 23.1297C376.853 22.4064 377.834 22 378.857 22H379.214C380.2 22 381 22.799 381 23.786C381 24.2081 380.917 24.626 380.755 25.0159C380.594 25.4059 380.357 25.7602 380.059 26.0586C379.76 26.3571 379.406 26.5938 379.016 26.7553C378.626 26.9169 378.208 27 377.786 27H375M375 31V42M366 29C366 28.252 366 27.878 366.201 27.6C366.344 27.409 366.533 27.2575 366.75 27.16C367.098 27 367.565 27 368.5 27H381.5C382.435 27 382.902 27 383.25 27.16C383.478 27.266 383.667 27.418 383.799 27.6C384 27.878 384 28.252 384 29C384 29.748 384 30.121 383.799 30.4C383.656 30.591 383.467 30.7425 383.25 30.84C382.902 31 382.435 31 381.5 31H368.5C367.565 31 367.098 31 366.75 30.84C366.533 30.7425 366.344 30.591 366.201 30.4C366 30.121 366 29.748 366 29Z" stroke="black" stroke-width="1.5" stroke-linecap="round" stroke-linejoin="round"/>
<defs>
<clipPath id="clip0_11866_12577">
<rect width="36" height="36" fill="white" transform="translate(37.0001 13)"/>
</clipPath>
</defs>
</svg>
