<svg width="30" height="30" viewBox="0 0 30 30" fill="none" xmlns="http://www.w3.org/2000/svg">
<path d="M13.6719 25.3125H16.2891V23.4766C17.5651 23.2682 18.6198 22.7214 19.4531 21.8359C20.2865 20.9505 20.7031 19.9219 20.7031 18.75C20.7031 17.5781 20.3451 16.5755 19.6289 15.7422C18.9128 14.9089 17.8125 14.2188 16.3281 13.6719C14.7396 13.099 13.6914 12.6107 13.1836 12.207C12.6758 11.8034 12.4219 11.276 12.4219 10.625C12.4219 10.1042 12.6497 9.67448 13.1055 9.33594C13.5612 8.9974 14.1536 8.82812 14.8828 8.82812C15.612 8.82812 16.25 9.00391 16.7969 9.35547C17.3438 9.70703 17.7083 10.1823 17.8906 10.7812L20.1953 9.80469C19.8828 8.94531 19.3815 8.22266 18.6914 7.63672C18.0013 7.05078 17.2005 6.67969 16.2891 6.52344V4.6875H13.7109V6.5625C12.5391 6.82292 11.6016 7.32422 10.8984 8.06641C10.1953 8.80859 9.84375 9.67448 9.84375 10.6641C9.84375 11.8359 10.2409 12.832 11.0352 13.6523C11.8294 14.4727 13.0859 15.1823 14.8047 15.7812C15.9766 16.1979 16.8294 16.6406 17.3633 17.1094C17.8971 17.5781 18.1641 18.125 18.1641 18.75C18.1641 19.4271 17.8906 19.9935 17.3438 20.4492C16.7969 20.9049 16.1198 21.1328 15.3125 21.1328C14.4531 21.1328 13.6914 20.8464 13.0273 20.2734C12.3633 19.7005 11.9141 18.9583 11.6797 18.0469L9.25781 19.0625C9.57031 20.1562 10.1172 21.0872 10.8984 21.8555C11.6797 22.6237 12.6042 23.151 13.6719 23.4375V25.3125ZM15 30C12.9427 30 11.0026 29.6094 9.17969 28.8281C7.35677 28.0469 5.76172 26.9727 4.39453 25.6055C3.02734 24.2383 1.95312 22.6432 1.17188 20.8203C0.390625 18.9974 0 17.0573 0 15C0 12.9167 0.390625 10.9701 1.17188 9.16016C1.95312 7.35026 3.02734 5.76172 4.39453 4.39453C5.76172 3.02734 7.35677 1.95312 9.17969 1.17188C11.0026 0.390625 12.9427 0 15 0C17.0833 0 19.0299 0.390625 20.8398 1.17188C22.6497 1.95312 24.2383 3.02734 25.6055 4.39453C26.9727 5.76172 28.0469 7.35026 28.8281 9.16016C29.6094 10.9701 30 12.9167 30 15C30 17.0573 29.6094 18.9974 28.8281 20.8203C28.0469 22.6432 26.9727 24.2383 25.6055 25.6055C24.2383 26.9727 22.6497 28.0469 20.8398 28.8281C19.0299 29.6094 17.0833 30 15 30ZM15 27.1875C18.3854 27.1875 21.263 26.0026 23.6328 23.6328C26.0026 21.263 27.1875 18.3854 27.1875 15C27.1875 11.6146 26.0026 8.73698 23.6328 6.36719C21.263 3.9974 18.3854 2.8125 15 2.8125C11.6146 2.8125 8.73698 3.9974 6.36719 6.36719C3.9974 8.73698 2.8125 11.6146 2.8125 15C2.8125 18.3854 3.9974 21.263 6.36719 23.6328C8.73698 26.0026 11.6146 27.1875 15 27.1875Z" fill="white"/>
</svg>
