<svg width="27" height="32" viewBox="0 0 27 32" fill="none" xmlns="http://www.w3.org/2000/svg">
<path d="M2.77792 18.3333C2.77792 19.9814 3.13903 21.5346 3.86125 22.9929C4.58347 24.4513 5.59736 25.6851 6.90292 26.6946C6.81958 26.426 6.75931 26.1574 6.72208 25.8888C6.68514 25.6204 6.66667 25.3519 6.66667 25.0833C6.66667 24.1944 6.83333 23.3611 7.16667 22.5833C7.5 21.8056 7.98611 21.0972 8.625 20.4583L13.3333 15.8333L18.0417 20.4583C18.6806 21.0972 19.1667 21.8056 19.5 22.5833C19.8333 23.3611 20 24.1944 20 25.0833C20 25.3519 19.9815 25.6204 19.9446 25.8888C19.9074 26.1574 19.8471 26.426 19.7638 26.6946C21.0693 25.6851 22.0832 24.4513 22.8054 22.9929C23.5276 21.5346 23.8888 19.9814 23.8888 18.3333C23.8888 16.8703 23.5901 15.456 22.9929 14.0904C22.3957 12.7246 21.5369 11.4815 20.4167 10.3612C19.8425 10.7593 19.2407 11.0671 18.6112 11.2846C17.9815 11.5024 17.3472 11.6112 16.7083 11.6112C15.0047 11.6112 13.5718 11.0371 12.4096 9.88875C11.2476 8.7407 10.6343 7.30556 10.5696 5.58333V5.02792C9.35653 5.94458 8.26847 6.93764 7.30542 8.00708C6.34264 9.07653 5.52556 10.1829 4.85417 11.3263C4.18278 12.4699 3.66889 13.6389 3.3125 14.8333C2.95611 16.0278 2.77792 17.1944 2.77792 18.3333ZM13.3333 19.7221L10.5696 22.4446C10.2085 22.8057 9.9307 23.2085 9.73625 23.6529C9.54181 24.0974 9.44458 24.5742 9.44458 25.0833C9.44458 26.1389 9.82181 27.0371 10.5763 27.7779C11.331 28.5185 12.25 28.8888 13.3333 28.8888C14.4167 28.8888 15.3357 28.5185 16.0904 27.7779C16.8449 27.0371 17.2221 26.1389 17.2221 25.0833C17.2221 24.5647 17.1249 24.0856 16.9304 23.6458C16.736 23.2061 16.4582 22.8057 16.0971 22.4446L13.3333 19.7221ZM13.3333 0V5.5C13.3333 6.44444 13.6597 7.23611 14.3125 7.875C14.9653 8.51389 15.7639 8.83333 16.7083 8.83333C17.2083 8.83333 17.6736 8.72917 18.1042 8.52083C18.5347 8.3125 18.9167 8 19.25 7.58333L20 6.66667C22.0556 7.83333 23.6806 9.45833 24.875 11.5417C26.0694 13.625 26.6667 15.8889 26.6667 18.3333C26.6667 22.0556 25.375 25.2083 22.7917 27.7917C20.2083 30.375 17.0556 31.6667 13.3333 31.6667C9.61111 31.6667 6.45833 30.375 3.875 27.7917C1.29167 25.2083 0 22.0556 0 18.3333C0 14.7686 1.19681 11.3519 3.59042 8.08333C5.98375 4.81472 9.23139 2.12028 13.3333 0Z" fill="white"/>
</svg>
