<svg width="28" height="28" viewBox="0 0 28 28" fill="none" xmlns="http://www.w3.org/2000/svg">
<path d="M27.3333 27.3337L22 22.0003H8.66663C7.93329 22.0003 7.30551 21.7392 6.78329 21.217C6.26107 20.6948 5.99996 20.067 5.99996 19.3337V18.0003H20.6666C21.4 18.0003 22.0277 17.7392 22.55 17.217C23.0722 16.6948 23.3333 16.067 23.3333 15.3337V6.00033H24.6666C25.4 6.00033 26.0277 6.26144 26.55 6.78366C27.0722 7.30588 27.3333 7.93366 27.3333 8.66699V27.3337ZM3.33329 14.2337L4.89996 12.667H18V3.33366H3.33329V14.2337ZM0.666626 20.667V3.33366C0.666626 2.60033 0.927737 1.97255 1.44996 1.45033C1.97218 0.928103 2.59996 0.666992 3.33329 0.666992H18C18.7333 0.666992 19.3611 0.928103 19.8833 1.45033C20.4055 1.97255 20.6666 2.60033 20.6666 3.33366V12.667C20.6666 13.4003 20.4055 14.0281 19.8833 14.5503C19.3611 15.0725 18.7333 15.3337 18 15.3337H5.99996L0.666626 20.667Z" fill="white"/>
</svg>
