<svg width="30" height="28" viewBox="0 0 30 28" fill="none" xmlns="http://www.w3.org/2000/svg">
<path d="M0.19043 9.30762C0.19043 7.95996 0.405273 6.72949 0.834961 5.61621C1.26465 4.49316 1.86523 3.52637 2.63672 2.71582C3.41797 1.90527 4.32617 1.28027 5.36133 0.84082C6.39648 0.391602 7.50977 0.166992 8.70117 0.166992C10.0977 0.166992 11.333 0.464844 12.4072 1.06055C13.4814 1.64648 14.3408 2.42285 14.9854 3.38965C15.6494 2.42285 16.5137 1.64648 17.5781 1.06055C18.6523 0.464844 19.8877 0.166992 21.2842 0.166992C22.4854 0.166992 23.5986 0.391602 24.624 0.84082C25.6592 1.28027 26.5625 1.90527 27.334 2.71582C28.1055 3.52637 28.7061 4.49316 29.1357 5.61621C29.5752 6.72949 29.7949 7.95996 29.7949 9.30762C29.7949 11.3877 29.2432 13.4531 28.1396 15.5039C27.0361 17.5547 25.4785 19.5469 23.4668 21.4805C21.4648 23.4141 19.0967 25.2598 16.3623 27.0176C16.1377 27.1641 15.8984 27.2959 15.6445 27.4131C15.4004 27.5303 15.1807 27.5889 14.9854 27.5889C14.8096 27.5889 14.5947 27.5303 14.3408 27.4131C14.0869 27.2959 13.8525 27.1641 13.6377 27.0176C10.9033 25.2598 8.52539 23.4141 6.50391 21.4805C4.49219 19.5469 2.93457 17.5547 1.83105 15.5039C0.737305 13.4531 0.19043 11.3877 0.19043 9.30762ZM3.14941 9.29297C3.14941 10.582 3.45703 11.8955 4.07227 13.2334C4.69727 14.5713 5.54688 15.8945 6.62109 17.2031C7.69531 18.5117 8.92578 19.7666 10.3125 20.9678C11.709 22.1592 13.1787 23.2676 14.7217 24.293C14.8584 24.4004 14.9463 24.4541 14.9854 24.4541C15.0244 24.4541 15.1221 24.4004 15.2783 24.293C16.8213 23.2676 18.2861 22.1592 19.6729 20.9678C21.0596 19.7666 22.29 18.5117 23.3643 17.2031C24.4385 15.8945 25.2832 14.5713 25.8984 13.2334C26.5234 11.8955 26.8359 10.582 26.8359 9.29297C26.8359 8.05273 26.5869 6.96875 26.0889 6.04102C25.5908 5.11328 24.9072 4.39062 24.0381 3.87305C23.1787 3.3457 22.207 3.08203 21.123 3.08203C20.2344 3.08203 19.4727 3.23828 18.8379 3.55078C18.2129 3.85352 17.6758 4.23926 17.2266 4.70801C16.7773 5.16699 16.3867 5.62598 16.0547 6.08496C15.8398 6.36816 15.6543 6.56836 15.498 6.68555C15.3516 6.80273 15.1807 6.86133 14.9854 6.86133C14.7998 6.86133 14.6289 6.80762 14.4727 6.7002C14.3164 6.58301 14.1309 6.37793 13.916 6.08496C13.6133 5.61621 13.2373 5.15234 12.7881 4.69336C12.3389 4.23438 11.792 3.85352 11.1475 3.55078C10.5029 3.23828 9.74121 3.08203 8.8623 3.08203C7.77832 3.08203 6.80176 3.3457 5.93262 3.87305C5.07324 4.39062 4.39453 5.11328 3.89648 6.04102C3.39844 6.96875 3.14941 8.05273 3.14941 9.29297Z" fill="white"/>
</svg>
