<svg width="34" height="30" viewBox="0 0 34 30" fill="none" xmlns="http://www.w3.org/2000/svg">
<path d="M2.77792 30C2.02792 30 1.37736 29.7246 0.82625 29.1737C0.275417 28.6226 0 27.9721 0 27.2221V18.4721C0 17.7221 0.275417 17.0717 0.82625 16.5208C1.37736 15.97 2.02792 15.6946 2.77792 15.6946H11.4167C11.4167 17.1574 11.9275 18.3888 12.9492 19.3888C13.9711 20.3888 15.2119 20.8888 16.6717 20.8888C18.1314 20.8888 19.3704 20.3888 20.3888 19.3888C21.4074 18.3888 21.9167 17.1574 21.9167 15.6946H30.5554C31.3054 15.6946 31.956 15.97 32.5071 16.5208C33.0579 17.0717 33.3333 17.7221 33.3333 18.4721V27.2221C33.3333 27.9721 33.0579 28.6226 32.5071 29.1737C31.956 29.7246 31.3054 30 30.5554 30H2.77792ZM2.77792 27.2221H30.5554V18.4721H24.1113C23.5463 20.0371 22.5949 21.294 21.2571 22.2429C19.919 23.1921 18.3889 23.6667 16.6667 23.6667C14.9444 23.6667 13.3958 23.1921 12.0208 22.2429C10.6458 21.294 9.71292 20.0371 9.22208 18.4721H2.77792V27.2221ZM26.25 12.8054L24.2779 10.8333L30 5.11125L31.9721 7.08333L26.25 12.8054ZM7.08333 12.8054L1.36125 7.08333L3.33333 5.11125L9.05542 10.8333L7.08333 12.8054ZM15.2779 7.97208V0H18.0554V7.97208H15.2779Z" fill="white"/>
</svg>
