<svg width="30" height="37" viewBox="0 0 30 37" fill="none" xmlns="http://www.w3.org/2000/svg">
<path d="M17.1562 36.1094C16.9583 36.1094 16.7865 36.0417 16.6406 35.9062C16.5052 35.7812 16.4219 35.6094 16.3906 35.3906C16.151 33.6823 15.8906 32.2448 15.6094 31.0781C15.3385 29.9219 14.974 28.9688 14.5156 28.2188C14.0573 27.4688 13.4531 26.8698 12.7031 26.4219C11.9635 25.974 11.0156 25.6146 9.85938 25.3438C8.71354 25.0625 7.29688 24.8125 5.60938 24.5938C5.38021 24.5729 5.19792 24.4896 5.0625 24.3438C4.92708 24.1979 4.85938 24.0208 4.85938 23.8125C4.85938 23.6146 4.92708 23.4427 5.0625 23.2969C5.19792 23.151 5.38021 23.0677 5.60938 23.0469C7.29688 22.8594 8.71875 22.6354 9.875 22.375C11.0312 22.1146 11.9844 21.7552 12.7344 21.2969C13.4844 20.8385 14.0885 20.2292 14.5469 19.4688C15.0052 18.7083 15.3698 17.7448 15.6406 16.5781C15.9219 15.401 16.1719 13.9531 16.3906 12.2344C16.4219 12.026 16.5052 11.8594 16.6406 11.7344C16.7865 11.599 16.9583 11.5312 17.1562 11.5312C17.3646 11.5312 17.5365 11.599 17.6719 11.7344C17.8073 11.8594 17.8958 12.026 17.9375 12.2344C18.1562 13.9531 18.401 15.401 18.6719 16.5781C18.9531 17.7448 19.3177 18.7083 19.7656 19.4688C20.224 20.2292 20.8281 20.8385 21.5781 21.2969C22.3281 21.7552 23.2812 22.1146 24.4375 22.375C25.5938 22.6354 27.0208 22.8594 28.7188 23.0469C28.9375 23.0677 29.1146 23.151 29.25 23.2969C29.3854 23.4427 29.4531 23.6146 29.4531 23.8125C29.4531 24.0208 29.3854 24.1979 29.25 24.3438C29.1146 24.4896 28.9375 24.5729 28.7188 24.5938C27.0208 24.7812 25.5938 25.0052 24.4375 25.2656C23.2812 25.526 22.3281 25.8854 21.5781 26.3438C20.8281 26.7917 20.224 27.3958 19.7656 28.1562C19.3177 28.9167 18.9531 29.8854 18.6719 31.0625C18.401 32.2396 18.1562 33.6823 17.9375 35.3906C17.8958 35.6094 17.8073 35.7812 17.6719 35.9062C17.5365 36.0417 17.3646 36.1094 17.1562 36.1094ZM6.5625 18.8281C6.25 18.8281 6.07292 18.6562 6.03125 18.3125C5.90625 17.2708 5.77083 16.4531 5.625 15.8594C5.48958 15.2656 5.26562 14.8229 4.95312 14.5312C4.65104 14.2292 4.19271 14 3.57812 13.8438C2.97396 13.6875 2.14062 13.5208 1.07812 13.3438C0.723958 13.2917 0.546875 13.1146 0.546875 12.8125C0.546875 12.5208 0.703125 12.349 1.01562 12.2969C2.08854 12.0885 2.93229 11.9062 3.54688 11.75C4.16146 11.5833 4.625 11.3542 4.9375 11.0625C5.25 10.7708 5.47917 10.3385 5.625 9.76562C5.77083 9.18229 5.90625 8.36979 6.03125 7.32812C6.07292 6.98438 6.25 6.8125 6.5625 6.8125C6.875 6.8125 7.05208 6.97917 7.09375 7.3125C7.22917 8.36458 7.36458 9.19271 7.5 9.79688C7.64583 10.401 7.86979 10.8594 8.17188 11.1719C8.48438 11.474 8.94792 11.6979 9.5625 11.8438C10.1771 11.9896 11.026 12.1406 12.1094 12.2969C12.2448 12.3073 12.3542 12.3594 12.4375 12.4531C12.5312 12.5469 12.5781 12.6667 12.5781 12.8125C12.5781 13.1042 12.4219 13.2812 12.1094 13.3438C11.026 13.5521 10.1771 13.7396 9.5625 13.9062C8.95833 14.0625 8.5 14.2917 8.1875 14.5938C7.88542 14.8854 7.66146 15.3229 7.51562 15.9062C7.36979 16.4896 7.22917 17.3021 7.09375 18.3438C7.07292 18.4792 7.01562 18.5938 6.92188 18.6875C6.82812 18.7812 6.70833 18.8281 6.5625 18.8281ZM14.125 8.07812C13.9271 8.07812 13.8125 7.97396 13.7812 7.76562C13.6562 7.13021 13.5469 6.63021 13.4531 6.26562C13.3698 5.90104 13.2344 5.625 13.0469 5.4375C12.8698 5.23958 12.5938 5.08333 12.2188 4.96875C11.8438 4.85417 11.3177 4.73958 10.6406 4.625C10.4323 4.58333 10.3281 4.46354 10.3281 4.26562C10.3281 4.07812 10.4323 3.96354 10.6406 3.92188C11.3177 3.79688 11.8438 3.68229 12.2188 3.57812C12.5938 3.46354 12.8698 3.3125 13.0469 3.125C13.2344 2.92708 13.3698 2.64583 13.4531 2.28125C13.5469 1.91667 13.6562 1.41667 13.7812 0.78125C13.8125 0.572917 13.9271 0.46875 14.125 0.46875C14.3125 0.46875 14.4271 0.572917 14.4688 0.78125C14.5833 1.41667 14.6875 1.91667 14.7812 2.28125C14.875 2.64583 15.0104 2.92708 15.1875 3.125C15.375 3.3125 15.6562 3.46354 16.0312 3.57812C16.4062 3.68229 16.9323 3.79688 17.6094 3.92188C17.8177 3.96354 17.9219 4.07812 17.9219 4.26562C17.9219 4.46354 17.8177 4.58333 17.6094 4.625C16.9323 4.73958 16.4062 4.85417 16.0312 4.96875C15.6562 5.08333 15.375 5.23958 15.1875 5.4375C15.0104 5.625 14.875 5.90104 14.7812 6.26562C14.6875 6.63021 14.5833 7.13021 14.4688 7.76562C14.4271 7.97396 14.3125 8.07812 14.125 8.07812Z" fill="white"/>
</svg>
