<svg width="32" height="32" viewBox="0 0 32 32" fill="none" xmlns="http://www.w3.org/2000/svg">
<mask id="mask0_11833_6482" style="mask-type:luminance" maskUnits="userSpaceOnUse" x="0" y="0" width="32" height="32">
<path d="M0 0V32H32V0H0Z" fill="white"/>
</mask>
<g mask="url(#mask0_11833_6482)">
<path fill-rule="evenodd" clip-rule="evenodd" d="M4.49999 29H6.00007V32H4.49999C2.01471 32 5.17802e-07 29.9852 2.58202e-07 27.5L0 25H2.99999V27.5C2.99999 28.3284 3.67157 29 4.49999 29ZM8.00007 29H12.0001V32H8.00007V29ZM12.0001 6.7753e-07L8.00007 8.52374e-07V3H12.0001V6.7753e-07ZM3.00007 4.50014V7.00024H7.1448e-05L7.13387e-05 4.50014C7.12301e-05 2.01486 2.01479 0.000146072 4.50007 0.000145964L6.00007 0.000145898V3.00014H4.50007C3.67165 3.00014 3.00007 3.67172 3.00007 4.50014ZM3.00007 23V17H7.18851e-05L7.21474e-05 23H3.00007ZM3.00007 9V15H7.17977e-05L7.15354e-05 9H3.00007ZM13.0001 27.5C13.0001 29.9852 15.0148 32 17.5001 32H27.5001C29.9855 32 32.0001 29.9852 32.0001 27.5V4.5C32.0001 2.01472 29.9855 -1.08634e-07 27.5001 0L17.5001 4.37116e-07C15.0148 5.45752e-07 13.0001 2.01472 13.0001 4.5V27.5ZM17.5001 29C16.6717 29 16.0001 28.3284 16.0001 27.5V4.5C16.0001 3.67158 16.6717 3 17.5001 3H27.5001C28.3285 3 29.0001 3.67158 29.0001 4.5V27.5C29.0001 28.3284 28.3285 29 27.5001 29H17.5001Z" fill="#EDEDED"/>
</g>
</svg>
