<svg width="44" height="45" viewBox="0 0 44 45" fill="none" xmlns="http://www.w3.org/2000/svg">
<g filter="url(#filter0_dd_11866_12708)">
<rect x="2" y="1" width="40" height="40" rx="20" fill="black"/>
<path d="M22.4707 29.7285C21.377 29.7285 20.3906 29.569 19.5117 29.25C18.6393 28.9375 17.9134 28.5078 17.334 27.9609C16.7546 27.4076 16.3607 26.7728 16.1523 26.0566C16.0742 25.8223 16.0352 25.6074 16.0352 25.4121C16.0352 25.0345 16.1458 24.7285 16.3672 24.4941C16.5951 24.2598 16.9173 24.1426 17.334 24.1426C17.653 24.1426 17.9199 24.2272 18.1348 24.3965C18.3561 24.5658 18.5352 24.8001 18.6719 25.0996C18.8216 25.6009 19.0658 26.0241 19.4043 26.3691C19.7428 26.7142 20.1693 26.9779 20.6836 27.1602C21.2044 27.3424 21.8132 27.4336 22.5098 27.4336C23.2845 27.4336 23.9518 27.3359 24.5117 27.1406C25.0781 26.9388 25.5111 26.6491 25.8105 26.2715C26.11 25.8939 26.2598 25.4349 26.2598 24.8945C26.2598 24.1979 26.0124 23.6576 25.5176 23.2734C25.0228 22.8893 24.196 22.5605 23.0371 22.2871L21.1816 21.8672C19.528 21.4831 18.2878 20.9102 17.4609 20.1484C16.6406 19.3802 16.2305 18.3743 16.2305 17.1309C16.2305 16.1413 16.4974 15.2786 17.0312 14.543C17.5651 13.8008 18.3008 13.2246 19.2383 12.8145C20.1758 12.3978 21.25 12.1895 22.4609 12.1895C23.5156 12.1895 24.4629 12.349 25.3027 12.668C26.1491 12.9805 26.849 13.4134 27.4023 13.9668C27.9557 14.5202 28.3366 15.1517 28.5449 15.8613C28.5775 15.9655 28.6003 16.0729 28.6133 16.1836C28.6328 16.2878 28.6426 16.3919 28.6426 16.4961C28.6426 16.8477 28.5319 17.1309 28.3105 17.3457C28.0892 17.554 27.7799 17.6582 27.3828 17.6582C26.7643 17.6582 26.3118 17.349 26.0254 16.7305C25.8431 16.2422 25.5892 15.832 25.2637 15.5C24.9382 15.168 24.541 14.9173 24.0723 14.748C23.61 14.5723 23.0794 14.4844 22.4805 14.4844C21.7383 14.4844 21.1068 14.5918 20.5859 14.8066C20.0651 15.0215 19.668 15.3145 19.3945 15.6855C19.1276 16.0501 18.9941 16.457 18.9941 16.9062C18.9941 17.5443 19.2448 18.0651 19.7461 18.4688C20.2474 18.8659 21.0156 19.1816 22.0508 19.416L23.9062 19.8457C25.6576 20.2493 26.9466 20.832 27.7734 21.5938C28.6003 22.349 29.0137 23.3613 29.0137 24.6309C29.0137 25.7051 28.724 26.623 28.1445 27.3848C27.5651 28.1465 26.7806 28.7259 25.791 29.123C24.8079 29.5267 23.7012 29.7285 22.4707 29.7285ZM22.4902 31.9746C22.3014 31.9746 22.1419 31.9095 22.0117 31.7793C21.888 31.6491 21.8262 31.4863 21.8262 31.291V10.6465C21.8262 10.4512 21.888 10.2884 22.0117 10.1582C22.1419 10.028 22.3014 9.96289 22.4902 9.96289C22.6855 9.96289 22.8451 10.028 22.9688 10.1582C23.099 10.2884 23.1641 10.4512 23.1641 10.6465V31.291C23.1641 31.4863 23.099 31.6491 22.9688 31.7793C22.8451 31.9095 22.6855 31.9746 22.4902 31.9746Z" fill="white"/>
</g>
<defs>
<filter id="filter0_dd_11866_12708" x="0" y="0" width="44" height="45" filterUnits="userSpaceOnUse" color-interpolation-filters="sRGB">
<feFlood flood-opacity="0" result="BackgroundImageFix"/>
<feColorMatrix in="SourceAlpha" type="matrix" values="0 0 0 0 0 0 0 0 0 0 0 0 0 0 0 0 0 0 127 0" result="hardAlpha"/>
<feOffset dy="2"/>
<feGaussianBlur stdDeviation="1"/>
<feComposite in2="hardAlpha" operator="out"/>
<feColorMatrix type="matrix" values="0 0 0 0 0 0 0 0 0 0 0 0 0 0 0 0 0 0 0.04 0"/>
<feBlend mode="normal" in2="BackgroundImageFix" result="effect1_dropShadow_11866_12708"/>
<feColorMatrix in="SourceAlpha" type="matrix" values="0 0 0 0 0 0 0 0 0 0 0 0 0 0 0 0 0 0 127 0" result="hardAlpha"/>
<feMorphology radius="1" operator="dilate" in="SourceAlpha" result="effect2_dropShadow_11866_12708"/>
<feOffset/>
<feComposite in2="hardAlpha" operator="out"/>
<feColorMatrix type="matrix" values="0 0 0 0 0 0 0 0 0 0 0 0 0 0 0 0 0 0 0.08 0"/>
<feBlend mode="normal" in2="effect1_dropShadow_11866_12708" result="effect2_dropShadow_11866_12708"/>
<feBlend mode="normal" in="SourceGraphic" in2="effect2_dropShadow_11866_12708" result="shape"/>
</filter>
</defs>
</svg>
