<svg width="36" height="36" viewBox="0 0 36 36" fill="none" xmlns="http://www.w3.org/2000/svg">
<rect width="36" height="36" rx="10" fill="black"/>
<path fill-rule="evenodd" clip-rule="evenodd" d="M9 18.135C10.3476 18.135 11.6814 17.8698 12.9264 17.3544C14.1714 16.8384 15.3024 16.083 16.2546 15.1302C17.2074 14.1774 17.9634 13.0464 18.4788 11.8014C18.9948 10.5564 19.26 9.2226 19.26 7.875H9H14.13V13.005H9V18.135ZM19.8312 13.4172C19.9416 12.6162 20.5722 11.9838 21.3732 11.8698L25.011 11.3526C25.2468 11.319 25.449 11.5194 25.4166 11.7558L24.9096 15.438C24.7992 16.2384 24.1692 16.8708 23.3676 16.9848L19.7304 17.502C19.494 17.5356 19.2924 17.3352 19.3248 17.0994L19.8312 13.4172ZM15.6696 19.5852C16.5978 18.6564 17.8572 18.135 19.17 18.135V23.085H24.12V28.035H19.17C17.8572 28.035 16.5978 27.5136 15.6696 26.5854C14.7414 25.6572 14.22 24.3978 14.22 23.085C14.22 21.7722 14.7414 20.5134 15.6696 19.5852Z" fill="#F6F6F6"/>
</svg>
